<svg width="1209" height="652" viewBox="0 0 1209 652" fill="none" xmlns="http://www.w3.org/2000/svg">
<path d="M0 0H1207.77V651.313H0V0Z" fill="#782CE4"/>
<g filter="url(#filter0_d)">
<path d="M748.088 114.96H468.454C451.445 114.96 437.656 128.858 437.656 146.001V505.546C437.656 522.689 451.445 536.586 468.454 536.586H748.088C765.098 536.586 778.886 522.689 778.886 505.546V146.001C778.886 128.858 765.098 114.96 748.088 114.96Z" fill="white"/>
</g>
<path d="M751.526 111H465.016C447.588 111 433.46 125.158 433.46 142.623V508.924C433.46 526.389 447.588 540.547 465.016 540.547H751.526C768.954 540.547 783.082 526.389 783.082 508.924V142.623C783.082 125.158 768.954 111 751.526 111Z" fill="white"/>
<path d="M454 201.781C454 185.959 466.795 173.134 482.579 173.134H733.421C749.205 173.134 762 185.959 762 201.781V485.487C762 501.308 749.205 514.134 733.421 514.134H482.579C466.795 514.134 454 501.308 454 485.487V201.781Z" fill="#FAFAFC"/>
<g filter="url(#filter1_d)">
<path d="M630.712 464.374H585.828C579.949 464.374 575.182 468.672 575.182 473.975C575.182 479.279 579.949 483.577 585.828 483.577H630.712C636.592 483.577 641.358 479.279 641.358 473.975C641.358 468.672 636.592 464.374 630.712 464.374Z" fill="#782CE4"/>
</g>
<path d="M632.726 462.349H583.815C577.408 462.349 572.214 467.554 572.214 473.975C572.214 480.396 577.408 485.602 583.815 485.602H632.726C639.133 485.602 644.327 480.396 644.327 473.975C644.327 467.554 639.133 462.349 632.726 462.349Z" fill="#782CE4"/>
<g filter="url(#filter2_d)">
<path d="M476.655 153.193C481.648 153.193 485.695 149.137 485.695 144.133C485.695 139.129 481.648 135.073 476.655 135.073C471.662 135.073 467.614 139.129 467.614 144.133C467.614 149.137 471.662 153.193 476.655 153.193Z" fill="#F4263E"/>
</g>
<path d="M476.655 153.925C482.052 153.925 486.427 149.541 486.427 144.132C486.427 138.723 482.052 134.339 476.655 134.339C471.258 134.339 466.882 138.723 466.882 144.132C466.882 149.541 471.258 153.925 476.655 153.925Z" fill="#F4263E"/>
<g filter="url(#filter3_d)">
<path d="M509.229 152.353C513.76 152.353 517.432 148.673 517.432 144.133C517.432 139.592 513.76 135.912 509.229 135.912C504.699 135.912 501.026 139.592 501.026 144.133C501.026 148.673 504.699 152.353 509.229 152.353Z" fill="#FFCD1D"/>
</g>
<path d="M509.229 153.925C514.626 153.925 519.002 149.541 519.002 144.132C519.002 138.723 514.626 134.339 509.229 134.339C503.832 134.339 499.457 138.723 499.457 144.132C499.457 149.541 503.832 153.925 509.229 153.925Z" fill="#FFCD1D"/>
<g filter="url(#filter4_d)">
<path d="M541.804 153.029C546.706 153.029 550.681 149.046 550.681 144.133C550.681 139.219 546.706 135.236 541.804 135.236C536.901 135.236 532.926 139.219 532.926 144.133C532.926 149.046 536.901 153.029 541.804 153.029Z" fill="#83E436"/>
</g>
<path d="M541.804 153.925C547.201 153.925 551.576 149.541 551.576 144.132C551.576 138.723 547.201 134.339 541.804 134.339C536.407 134.339 532.031 138.723 532.031 144.132C532.031 149.541 536.407 153.925 541.804 153.925Z" fill="#83E436"/>
<path opacity="0.76" d="M588.253 350.134H485.747C479.812 350.134 475 354.924 475 360.833V438.435C475 444.344 479.812 449.134 485.747 449.134H588.253C594.188 449.134 599 444.344 599 438.435V360.833C599 354.924 594.188 350.134 588.253 350.134Z" fill="#E7E8F1"/>
<path opacity="0.76" d="M730.34 350.134H628.66C622.773 350.134 618 354.924 618 360.833V438.435C618 444.344 622.773 449.134 628.66 449.134H730.34C736.227 449.134 741 444.344 741 438.435V360.833C741 354.924 736.227 350.134 730.34 350.134Z" fill="#E7E8F1"/>
<path opacity="0.3" d="M721.449 203.134H634.551C623.753 203.134 615 211.957 615 222.84V310.428C615 321.311 623.753 330.134 634.551 330.134H721.449C732.247 330.134 741 321.311 741 310.428V222.84C741 211.957 732.247 203.134 721.449 203.134Z" fill="#782CE4"/>
<path d="M580.984 217.134H483.016C478.589 217.134 475 220.716 475 225.134V225.134C475 229.552 478.589 233.134 483.016 233.134H580.984C585.411 233.134 589 229.552 589 225.134C589 220.716 585.411 217.134 580.984 217.134Z" fill="#BEBFCC"/>
<path d="M565.667 247.134H480.333C477.388 247.134 475 249.596 475 252.634C475 255.671 477.388 258.134 480.333 258.134H565.667C568.612 258.134 571 255.671 571 252.634C571 249.596 568.612 247.134 565.667 247.134Z" fill="#E7E8F1"/>
<path d="M585.658 267.134H480.342C477.392 267.134 475 269.372 475 272.134C475 274.895 477.392 277.134 480.342 277.134H585.658C588.608 277.134 591 274.895 591 272.134C591 269.372 588.608 267.134 585.658 267.134Z" fill="#E7E8F1"/>
<g filter="url(#filter5_d)">
<path d="M533.867 295.774H488.469C482.522 295.774 477.701 299.858 477.701 304.895C477.701 309.933 482.522 314.017 488.469 314.017H533.867C539.815 314.017 544.636 309.933 544.636 304.895C544.636 299.858 539.815 295.774 533.867 295.774Z" fill="#782CE4"/>
</g>
<path d="M535.623 293.269H486.713C480.306 293.269 475.112 298.474 475.112 304.895C475.112 311.316 480.306 316.522 486.713 316.522H535.623C542.031 316.522 547.225 311.316 547.225 304.895C547.225 298.474 542.031 293.269 535.623 293.269Z" fill="#782CE4"/>
<g filter="url(#filter6_d)">
<path d="M930.77 141.744H740.896C715.815 141.744 695.483 162.12 695.483 187.255V336.592C695.483 361.727 715.815 382.103 740.896 382.103H930.77C955.851 382.103 976.184 361.727 976.184 336.592V187.255C976.184 162.12 955.851 141.744 930.77 141.744Z" fill="white" fill-opacity="0.01"/>
</g>
<path d="M935.381 135.908H736.286C709.986 135.908 688.667 157.273 688.667 183.629V340.218C688.667 366.574 709.986 387.94 736.286 387.94H935.381C961.68 387.94 983 366.574 983 340.218V183.629C983 157.273 961.68 135.908 935.381 135.908Z" fill="white"/>
<g filter="url(#filter7_d)">
<path d="M448.433 262.012H275.267C249.963 262.012 229.45 282.569 229.45 307.927V467.953C229.45 493.311 249.963 513.868 275.267 513.868H448.433C473.737 513.868 494.25 493.311 494.25 467.953V307.927C494.25 282.569 473.737 262.012 448.433 262.012Z" fill="white"/>
</g>
<path d="M451.84 257.058H271.861C245.561 257.058 224.242 278.423 224.242 304.779V471.101C224.242 497.457 245.561 518.822 271.861 518.822H451.84C478.139 518.822 499.459 497.457 499.459 471.101V304.779C499.459 278.423 478.139 257.058 451.84 257.058Z" fill="white"/>
<g filter="url(#filter8_d)">
<path d="M437.334 398.513C437.334 414.769 432.523 426.632 423.512 440.148C414.5 453.665 401.692 464.199 386.705 470.419C371.719 476.641 355.229 478.268 339.319 475.096C323.41 471.926 308.796 464.098 297.327 452.604C285.857 441.108 278.046 426.464 274.881 410.52C271.717 394.577 273.341 378.05 279.548 363.033C285.756 348.014 296.268 335.177 309.754 326.146C323.242 317.115 337.344 312.295 353.566 312.295V398.513H437.334Z" fill="#782CE4"/>
</g>
<path d="M442.409 394.485C442.409 411.747 437.301 428.622 427.731 442.973C418.162 457.327 404.561 468.513 388.648 475.118C372.734 481.725 355.224 483.453 338.329 480.084C321.436 476.717 305.918 468.406 293.738 456.2C281.559 443.993 273.265 428.443 269.904 411.512C266.544 394.582 268.268 377.033 274.859 361.087C281.451 345.139 292.614 331.508 306.935 321.918C321.257 312.328 338.095 307.21 355.32 307.21V394.485H442.409Z" fill="#782CE4"/>
<g filter="url(#filter9_d)">
<path d="M372.209 297.953C382.64 297.953 392.969 300.012 402.608 304.013C412.245 308.014 421.002 313.878 428.378 321.27C435.754 328.662 441.606 337.437 445.598 347.096C449.59 356.754 451.644 367.106 451.644 377.559H372.209V297.953Z" fill="#1B76FF"/>
</g>
<path d="M368.383 294.118C379.819 294.118 391.143 296.376 401.71 300.762C412.275 305.148 421.876 311.577 429.963 319.682C438.05 327.786 444.466 337.406 448.842 347.996C453.219 358.584 455.471 369.934 455.471 381.395H368.383V294.118Z" fill="#1B76FF"/>
<path opacity="0.2" d="M893.625 166.134H778.375C774.302 166.134 771 169.492 771 173.634C771 177.776 774.302 181.134 778.375 181.134H893.625C897.698 181.134 901 177.776 901 173.634C901 169.492 897.698 166.134 893.625 166.134Z" fill="#62668A"/>
<g filter="url(#filter10_d)">
<path d="M738.763 259.805C738.763 256.764 736.303 254.298 733.269 254.298C730.234 254.298 727.774 256.764 727.774 259.805V344.88C727.774 347.921 730.234 350.386 733.269 350.386C736.303 350.386 738.763 347.921 738.763 344.88V259.805Z" fill="#782CE4"/>
</g>
<path d="M738.763 259.805C738.763 256.764 736.303 254.298 733.269 254.298C730.234 254.298 727.774 256.764 727.774 259.805V344.88C727.774 347.921 730.234 350.386 733.269 350.386C736.303 350.386 738.763 347.921 738.763 344.88V259.805Z" fill="#782CE4"/>
<g filter="url(#filter11_d)">
<path d="M890.722 261.225C890.722 258.285 889.107 255.902 887.116 255.902C885.124 255.902 883.509 258.285 883.509 261.225V343.461C883.509 346.4 885.124 348.783 887.116 348.783C889.107 348.783 890.722 346.4 890.722 343.461V261.225Z" fill="#782CE4"/>
</g>
<path d="M892.61 259.805C892.61 256.764 890.15 254.298 887.116 254.298C884.081 254.298 881.621 256.764 881.621 259.805V344.88C881.621 347.921 884.081 350.386 887.116 350.386C890.15 350.386 892.61 347.921 892.61 344.88V259.805Z" fill="#782CE4"/>
<g filter="url(#filter12_d)">
<path d="M763.773 245.991C763.773 243.037 761.596 240.643 758.91 240.643C756.223 240.643 754.046 243.037 754.046 245.991V343.435C754.046 346.389 756.223 348.783 758.91 348.783C761.596 348.783 763.773 346.389 763.773 343.435V245.991Z" fill="#1B76FF"/>
</g>
<path d="M764.404 244.545C764.404 241.504 761.944 239.039 758.909 239.039C755.875 239.039 753.415 241.504 753.415 244.545V344.88C753.415 347.921 755.875 350.386 758.909 350.386C761.944 350.386 764.404 347.921 764.404 344.88V244.545Z" fill="#1B76FF"/>
<g filter="url(#filter13_d)">
<path d="M916.414 212.641C916.414 209.667 914.776 207.256 912.756 207.256C910.736 207.256 909.098 209.667 909.098 212.641V343.399C909.098 346.372 910.736 348.783 912.756 348.783C914.776 348.783 916.414 346.372 916.414 343.399V212.641Z" fill="#1B76FF"/>
</g>
<path d="M918.251 211.159C918.251 208.118 915.791 205.653 912.756 205.653C909.722 205.653 907.262 208.118 907.262 211.159V344.88C907.262 347.921 909.722 350.387 912.756 350.387C915.791 350.387 918.251 347.921 918.251 344.88V211.159Z" fill="#1B76FF"/>
<g filter="url(#filter14_d)">
<path d="M789.465 284.228C789.465 281.321 787.265 278.964 784.552 278.964C781.838 278.964 779.638 281.321 779.638 284.228V343.519C779.638 346.426 781.838 348.783 784.552 348.783C787.265 348.783 789.465 346.426 789.465 343.519V284.228Z" fill="#782CE4"/>
</g>
<path d="M790.046 282.866C790.046 279.825 787.586 277.36 784.552 277.36C781.517 277.36 779.057 279.825 779.057 282.866V344.88C779.057 347.921 781.517 350.387 784.552 350.387C787.586 350.387 790.046 347.921 790.046 344.88V282.866Z" fill="#782CE4"/>
<g filter="url(#filter15_d)">
<path d="M815.157 251.651C815.157 248.702 812.934 246.312 810.192 246.312C807.45 246.312 805.227 248.702 805.227 251.651V343.444C805.227 346.393 807.45 348.783 810.192 348.783C812.934 348.783 815.157 346.393 815.157 343.444V251.651Z" fill="#1B76FF"/>
</g>
<path d="M815.687 250.215C815.687 247.174 813.227 244.708 810.192 244.708C807.158 244.708 804.698 247.174 804.698 250.215V344.88C804.698 347.921 807.158 350.386 810.192 350.386C813.227 350.386 815.687 347.921 815.687 344.88V250.215Z" fill="#1B76FF"/>
<g filter="url(#filter16_d)">
<path d="M839.338 293.801C839.338 290.913 837.769 288.573 835.833 288.573C833.897 288.573 832.328 290.913 832.328 293.801V343.556C832.328 346.443 833.897 348.784 835.833 348.784C837.769 348.784 839.338 346.443 839.338 343.556V293.801Z" fill="#782CE4"/>
</g>
<path d="M841.327 292.475C841.327 289.434 838.867 286.968 835.833 286.968C832.798 286.968 830.338 289.434 830.338 292.475V344.88C830.338 347.921 832.798 350.386 835.833 350.386C838.867 350.386 841.327 347.921 841.327 344.88V292.475Z" fill="#782CE4"/>
<g filter="url(#filter17_d)">
<path d="M865.03 239.331C865.03 236.372 863.438 233.974 861.475 233.974C859.511 233.974 857.92 236.372 857.92 239.331V343.426C857.92 346.385 859.511 348.783 861.475 348.783C863.438 348.783 865.03 346.385 865.03 343.426V239.331Z" fill="#1B76FF"/>
</g>
<path d="M866.969 237.876C866.969 234.835 864.509 232.37 861.475 232.37C858.44 232.37 855.98 234.835 855.98 237.876V344.881C855.98 347.923 858.44 350.388 861.475 350.388C864.509 350.388 866.969 347.923 866.969 344.881V237.876Z" fill="#1B76FF"/>
<g filter="url(#filter18_d)">
<path d="M942.106 192.643C942.106 189.661 940.446 187.244 938.398 187.244C936.35 187.244 934.69 189.661 934.69 192.643V343.384C934.69 346.366 936.35 348.783 938.398 348.783C940.446 348.783 942.106 346.366 942.106 343.384V192.643Z" fill="#782CE4"/>
</g>
<path d="M943.893 191.146C943.893 188.105 941.433 185.64 938.398 185.64C935.364 185.64 932.904 188.105 932.904 191.146V344.881C932.904 347.922 935.364 350.388 938.398 350.388C941.433 350.388 943.893 347.922 943.893 344.881V191.146Z" fill="#782CE4"/>
<defs>
<filter id="filter0_d" x="397.656" y="77.9604" width="421.23" height="501.626" filterUnits="userSpaceOnUse" color-interpolation-filters="sRGB">
<feFlood flood-opacity="0" result="BackgroundImageFix"/>
<feColorMatrix in="SourceAlpha" type="matrix" values="0 0 0 0 0 0 0 0 0 0 0 0 0 0 0 0 0 0 127 0"/>
<feOffset dy="3"/>
<feGaussianBlur stdDeviation="20"/>
<feColorMatrix type="matrix" values="0 0 0 0 0.121042 0 0 0 0 0.143938 0 0 0 0 0.35 0 0 0 0.5 0"/>
<feBlend mode="normal" in2="BackgroundImageFix" result="effect1_dropShadow"/>
<feBlend mode="normal" in="SourceGraphic" in2="effect1_dropShadow" result="shape"/>
</filter>
<filter id="filter1_d" x="570.182" y="462.374" width="76.1762" height="29.2039" filterUnits="userSpaceOnUse" color-interpolation-filters="sRGB">
<feFlood flood-opacity="0" result="BackgroundImageFix"/>
<feColorMatrix in="SourceAlpha" type="matrix" values="0 0 0 0 0 0 0 0 0 0 0 0 0 0 0 0 0 0 127 0"/>
<feOffset dy="3"/>
<feGaussianBlur stdDeviation="2.5"/>
<feColorMatrix type="matrix" values="0 0 0 0 0.470588 0 0 0 0 0.172549 0 0 0 0 0.894118 0 0 0 0.2 0"/>
<feBlend mode="normal" in2="BackgroundImageFix" result="effect1_dropShadow"/>
<feBlend mode="normal" in="SourceGraphic" in2="effect1_dropShadow" result="shape"/>
</filter>
<filter id="filter2_d" x="462.89" y="135.073" width="27.5292" height="27.568" filterUnits="userSpaceOnUse" color-interpolation-filters="sRGB">
<feFlood flood-opacity="0" result="BackgroundImageFix"/>
<feColorMatrix in="SourceAlpha" type="matrix" values="0 0 0 0 0 0 0 0 0 0 0 0 0 0 0 0 0 0 127 0"/>
<feOffset dy="4.72395"/>
<feGaussianBlur stdDeviation="2.36197"/>
<feColorMatrix type="matrix" values="0 0 0 0 0.956863 0 0 0 0 0.14902 0 0 0 0 0.243137 0 0 0 0.12 0"/>
<feBlend mode="normal" in2="BackgroundImageFix" result="effect1_dropShadow"/>
<feBlend mode="normal" in="SourceGraphic" in2="effect1_dropShadow" result="shape"/>
</filter>
<filter id="filter3_d" x="496.302" y="135.912" width="25.8544" height="25.8897" filterUnits="userSpaceOnUse" color-interpolation-filters="sRGB">
<feFlood flood-opacity="0" result="BackgroundImageFix"/>
<feColorMatrix in="SourceAlpha" type="matrix" values="0 0 0 0 0 0 0 0 0 0 0 0 0 0 0 0 0 0 127 0"/>
<feOffset dy="4.72395"/>
<feGaussianBlur stdDeviation="2.36197"/>
<feColorMatrix type="matrix" values="0 0 0 0 1 0 0 0 0 0.80475 0 0 0 0 0.1125 0 0 0 0.25 0"/>
<feBlend mode="normal" in2="BackgroundImageFix" result="effect1_dropShadow"/>
<feBlend mode="normal" in="SourceGraphic" in2="effect1_dropShadow" result="shape"/>
</filter>
<filter id="filter4_d" x="528.202" y="135.236" width="27.2027" height="27.2408" filterUnits="userSpaceOnUse" color-interpolation-filters="sRGB">
<feFlood flood-opacity="0" result="BackgroundImageFix"/>
<feColorMatrix in="SourceAlpha" type="matrix" values="0 0 0 0 0 0 0 0 0 0 0 0 0 0 0 0 0 0 127 0"/>
<feOffset dy="4.72395"/>
<feGaussianBlur stdDeviation="2.36197"/>
<feColorMatrix type="matrix" values="0 0 0 0 0.513726 0 0 0 0 0.894118 0 0 0 0 0.211765 0 0 0 0.25 0"/>
<feBlend mode="normal" in2="BackgroundImageFix" result="effect1_dropShadow"/>
<feBlend mode="normal" in="SourceGraphic" in2="effect1_dropShadow" result="shape"/>
</filter>
<filter id="filter5_d" x="472.701" y="294.774" width="76.9351" height="28.243" filterUnits="userSpaceOnUse" color-interpolation-filters="sRGB">
<feFlood flood-opacity="0" result="BackgroundImageFix"/>
<feColorMatrix in="SourceAlpha" type="matrix" values="0 0 0 0 0 0 0 0 0 0 0 0 0 0 0 0 0 0 127 0"/>
<feOffset dy="4"/>
<feGaussianBlur stdDeviation="2.5"/>
<feColorMatrix type="matrix" values="0 0 0 0 0.470588 0 0 0 0 0.172549 0 0 0 0 0.894118 0 0 0 0.2 0"/>
<feBlend mode="normal" in2="BackgroundImageFix" result="effect1_dropShadow"/>
<feBlend mode="normal" in="SourceGraphic" in2="effect1_dropShadow" result="shape"/>
</filter>
<filter id="filter6_d" x="654.279" y="102.964" width="363.108" height="322.766" filterUnits="userSpaceOnUse" color-interpolation-filters="sRGB">
<feFlood flood-opacity="0" result="BackgroundImageFix"/>
<feColorMatrix in="SourceAlpha" type="matrix" values="0 0 0 0 0 0 0 0 0 0 0 0 0 0 0 0 0 0 127 0"/>
<feOffset dy="2.42375"/>
<feGaussianBlur stdDeviation="20.6019"/>
<feColorMatrix type="matrix" values="0 0 0 0 0.121042 0 0 0 0 0.143938 0 0 0 0 0.35 0 0 0 0.29 0"/>
<feBlend mode="normal" in2="BackgroundImageFix" result="effect1_dropShadow"/>
<feBlend mode="normal" in="SourceGraphic" in2="effect1_dropShadow" result="shape"/>
</filter>
<filter id="filter7_d" x="189.45" y="225.012" width="344.8" height="331.856" filterUnits="userSpaceOnUse" color-interpolation-filters="sRGB">
<feFlood flood-opacity="0" result="BackgroundImageFix"/>
<feColorMatrix in="SourceAlpha" type="matrix" values="0 0 0 0 0 0 0 0 0 0 0 0 0 0 0 0 0 0 127 0"/>
<feOffset dy="3"/>
<feGaussianBlur stdDeviation="20"/>
<feColorMatrix type="matrix" values="0 0 0 0 0.121042 0 0 0 0 0.143938 0 0 0 0 0.35 0 0 0 0.3 0"/>
<feBlend mode="normal" in2="BackgroundImageFix" result="effect1_dropShadow"/>
<feBlend mode="normal" in="SourceGraphic" in2="effect1_dropShadow" result="shape"/>
</filter>
<filter id="filter8_d" x="263.305" y="312.295" width="184.029" height="189.381" filterUnits="userSpaceOnUse" color-interpolation-filters="sRGB">
<feFlood flood-opacity="0" result="BackgroundImageFix"/>
<feColorMatrix in="SourceAlpha" type="matrix" values="0 0 0 0 0 0 0 0 0 0 0 0 0 0 0 0 0 0 127 0"/>
<feOffset dy="15"/>
<feGaussianBlur stdDeviation="5"/>
<feColorMatrix type="matrix" values="0 0 0 0 0.470588 0 0 0 0 0.172549 0 0 0 0 0.894118 0 0 0 0.25 0"/>
<feBlend mode="normal" in2="BackgroundImageFix" result="effect1_dropShadow"/>
<feBlend mode="normal" in="SourceGraphic" in2="effect1_dropShadow" result="shape"/>
</filter>
<filter id="filter9_d" x="362.209" y="297.953" width="99.4346" height="99.6067" filterUnits="userSpaceOnUse" color-interpolation-filters="sRGB">
<feFlood flood-opacity="0" result="BackgroundImageFix"/>
<feColorMatrix in="SourceAlpha" type="matrix" values="0 0 0 0 0 0 0 0 0 0 0 0 0 0 0 0 0 0 127 0"/>
<feOffset dy="10"/>
<feGaussianBlur stdDeviation="5"/>
<feColorMatrix type="matrix" values="0 0 0 0 0.104167 0 0 0 0 0.4625 0 0 0 0 1 0 0 0 0.22 0"/>
<feBlend mode="normal" in2="BackgroundImageFix" result="effect1_dropShadow"/>
<feBlend mode="normal" in="SourceGraphic" in2="effect1_dropShadow" result="shape"/>
</filter>
<filter id="filter10_d" x="722.774" y="254.298" width="20.989" height="106.088" filterUnits="userSpaceOnUse" color-interpolation-filters="sRGB">
<feFlood flood-opacity="0" result="BackgroundImageFix"/>
<feColorMatrix in="SourceAlpha" type="matrix" values="0 0 0 0 0 0 0 0 0 0 0 0 0 0 0 0 0 0 127 0"/>
<feOffset dy="5"/>
<feGaussianBlur stdDeviation="2.5"/>
<feColorMatrix type="matrix" values="0 0 0 0 0.470588 0 0 0 0 0.172549 0 0 0 0 0.894118 0 0 0 0.2 0"/>
<feBlend mode="normal" in2="BackgroundImageFix" result="effect1_dropShadow"/>
<feBlend mode="normal" in="SourceGraphic" in2="effect1_dropShadow" result="shape"/>
</filter>
<filter id="filter11_d" x="878.509" y="255.902" width="17.2129" height="102.881" filterUnits="userSpaceOnUse" color-interpolation-filters="sRGB">
<feFlood flood-opacity="0" result="BackgroundImageFix"/>
<feColorMatrix in="SourceAlpha" type="matrix" values="0 0 0 0 0 0 0 0 0 0 0 0 0 0 0 0 0 0 127 0"/>
<feOffset dy="5"/>
<feGaussianBlur stdDeviation="2.5"/>
<feColorMatrix type="matrix" values="0 0 0 0 0.470588 0 0 0 0 0.172549 0 0 0 0 0.894118 0 0 0 0.2 0"/>
<feBlend mode="normal" in2="BackgroundImageFix" result="effect1_dropShadow"/>
<feBlend mode="normal" in="SourceGraphic" in2="effect1_dropShadow" result="shape"/>
</filter>
<filter id="filter12_d" x="749.046" y="240.643" width="19.7277" height="118.14" filterUnits="userSpaceOnUse" color-interpolation-filters="sRGB">
<feFlood flood-opacity="0" result="BackgroundImageFix"/>
<feColorMatrix in="SourceAlpha" type="matrix" values="0 0 0 0 0 0 0 0 0 0 0 0 0 0 0 0 0 0 127 0"/>
<feOffset dy="5"/>
<feGaussianBlur stdDeviation="2.5"/>
<feColorMatrix type="matrix" values="0 0 0 0 0.104167 0 0 0 0 0.4625 0 0 0 0 1 0 0 0 0.2 0"/>
<feBlend mode="normal" in2="BackgroundImageFix" result="effect1_dropShadow"/>
<feBlend mode="normal" in="SourceGraphic" in2="effect1_dropShadow" result="shape"/>
</filter>
<filter id="filter13_d" x="904.098" y="207.256" width="17.316" height="151.527" filterUnits="userSpaceOnUse" color-interpolation-filters="sRGB">
<feFlood flood-opacity="0" result="BackgroundImageFix"/>
<feColorMatrix in="SourceAlpha" type="matrix" values="0 0 0 0 0 0 0 0 0 0 0 0 0 0 0 0 0 0 127 0"/>
<feOffset dy="5"/>
<feGaussianBlur stdDeviation="2.5"/>
<feColorMatrix type="matrix" values="0 0 0 0 0.104167 0 0 0 0 0.4625 0 0 0 0 1 0 0 0 0.2 0"/>
<feBlend mode="normal" in2="BackgroundImageFix" result="effect1_dropShadow"/>
<feBlend mode="normal" in="SourceGraphic" in2="effect1_dropShadow" result="shape"/>
</filter>
<filter id="filter14_d" x="774.638" y="278.964" width="19.8274" height="79.8193" filterUnits="userSpaceOnUse" color-interpolation-filters="sRGB">
<feFlood flood-opacity="0" result="BackgroundImageFix"/>
<feColorMatrix in="SourceAlpha" type="matrix" values="0 0 0 0 0 0 0 0 0 0 0 0 0 0 0 0 0 0 127 0"/>
<feOffset dy="5"/>
<feGaussianBlur stdDeviation="2.5"/>
<feColorMatrix type="matrix" values="0 0 0 0 0.470588 0 0 0 0 0.172549 0 0 0 0 0.894118 0 0 0 0.2 0"/>
<feBlend mode="normal" in2="BackgroundImageFix" result="effect1_dropShadow"/>
<feBlend mode="normal" in="SourceGraphic" in2="effect1_dropShadow" result="shape"/>
</filter>
<filter id="filter15_d" x="800.227" y="246.312" width="19.9304" height="112.471" filterUnits="userSpaceOnUse" color-interpolation-filters="sRGB">
<feFlood flood-opacity="0" result="BackgroundImageFix"/>
<feColorMatrix in="SourceAlpha" type="matrix" values="0 0 0 0 0 0 0 0 0 0 0 0 0 0 0 0 0 0 127 0"/>
<feOffset dy="5"/>
<feGaussianBlur stdDeviation="2.5"/>
<feColorMatrix type="matrix" values="0 0 0 0 0.104167 0 0 0 0 0.4625 0 0 0 0 1 0 0 0 0.2 0"/>
<feBlend mode="normal" in2="BackgroundImageFix" result="effect1_dropShadow"/>
<feBlend mode="normal" in="SourceGraphic" in2="effect1_dropShadow" result="shape"/>
</filter>
<filter id="filter16_d" x="827.328" y="288.573" width="17.0104" height="70.2108" filterUnits="userSpaceOnUse" color-interpolation-filters="sRGB">
<feFlood flood-opacity="0" result="BackgroundImageFix"/>
<feColorMatrix in="SourceAlpha" type="matrix" values="0 0 0 0 0 0 0 0 0 0 0 0 0 0 0 0 0 0 127 0"/>
<feOffset dy="5"/>
<feGaussianBlur stdDeviation="2.5"/>
<feColorMatrix type="matrix" values="0 0 0 0 0.470588 0 0 0 0 0.172549 0 0 0 0 0.894118 0 0 0 0.2 0"/>
<feBlend mode="normal" in2="BackgroundImageFix" result="effect1_dropShadow"/>
<feBlend mode="normal" in="SourceGraphic" in2="effect1_dropShadow" result="shape"/>
</filter>
<filter id="filter17_d" x="852.92" y="233.974" width="17.1103" height="124.809" filterUnits="userSpaceOnUse" color-interpolation-filters="sRGB">
<feFlood flood-opacity="0" result="BackgroundImageFix"/>
<feColorMatrix in="SourceAlpha" type="matrix" values="0 0 0 0 0 0 0 0 0 0 0 0 0 0 0 0 0 0 127 0"/>
<feOffset dy="5"/>
<feGaussianBlur stdDeviation="2.5"/>
<feColorMatrix type="matrix" values="0 0 0 0 0.104167 0 0 0 0 0.4625 0 0 0 0 1 0 0 0 0.2 0"/>
<feBlend mode="normal" in2="BackgroundImageFix" result="effect1_dropShadow"/>
<feBlend mode="normal" in="SourceGraphic" in2="effect1_dropShadow" result="shape"/>
</filter>
<filter id="filter18_d" x="929.69" y="187.244" width="17.4155" height="171.539" filterUnits="userSpaceOnUse" color-interpolation-filters="sRGB">
<feFlood flood-opacity="0" result="BackgroundImageFix"/>
<feColorMatrix in="SourceAlpha" type="matrix" values="0 0 0 0 0 0 0 0 0 0 0 0 0 0 0 0 0 0 127 0"/>
<feOffset dy="5"/>
<feGaussianBlur stdDeviation="2.5"/>
<feColorMatrix type="matrix" values="0 0 0 0 0.470588 0 0 0 0 0.172549 0 0 0 0 0.894118 0 0 0 0.2 0"/>
<feBlend mode="normal" in2="BackgroundImageFix" result="effect1_dropShadow"/>
<feBlend mode="normal" in="SourceGraphic" in2="effect1_dropShadow" result="shape"/>
</filter>
</defs>
</svg>
