<svg width="1209" height="652" viewBox="0 0 1209 652" fill="none" xmlns="http://www.w3.org/2000/svg">
<path d="M0 0H1209V652H0V0Z" fill="#1B76FF"/>
<g filter="url(#filter0_d)">
<path d="M583.115 80.6433L289.618 96.0248C278.155 96.6256 269.35 106.405 269.951 117.868L291.906 536.793C292.506 548.256 302.286 557.061 313.748 556.46L607.245 541.079C618.708 540.478 627.513 530.699 626.912 519.236L604.957 100.311C604.357 88.8479 594.577 80.0426 583.115 80.6433Z" fill="white"/>
</g>
<path d="M586.473 74.7106L285.658 90.4757C273.909 91.0914 264.884 101.115 265.5 112.863L288.002 542.235C288.618 553.984 298.641 563.009 310.39 562.393L611.205 546.628C622.954 546.012 631.979 535.989 631.363 524.241L608.861 94.8684C608.245 83.1199 598.222 74.0949 586.473 74.7106Z" fill="white"/>
<g filter="url(#filter1_d)">
<path d="M347.815 503.603L347.815 503.603C343.68 503.82 340.504 507.347 340.721 511.482L341.142 519.513C341.359 523.648 344.887 526.824 349.022 526.608L349.022 526.608C353.157 526.391 356.333 522.864 356.116 518.729L355.695 510.698C355.478 506.563 351.95 503.387 347.815 503.603Z" fill="#1B76FF"/>
</g>
<path d="M347.737 502.107L347.737 502.107C343.064 502.352 339.475 506.338 339.72 511.011L340.196 520.086C340.441 524.759 344.428 528.349 349.1 528.104L349.1 528.104C353.773 527.859 357.362 523.873 357.117 519.2L356.641 510.125C356.396 505.452 352.409 501.862 347.737 502.107Z" fill="#1B76FF"/>
<g filter="url(#filter2_d)">
<path d="M378.131 480.558L378.131 480.558C373.458 480.803 369.869 484.789 370.114 489.462L371.634 518.44C371.879 523.113 375.866 526.702 380.538 526.458C385.211 526.213 388.8 522.227 388.555 517.554L387.035 488.576C386.79 483.903 382.803 480.313 378.131 480.558Z" fill="#1B76FF"/>
</g>
<path d="M378.131 480.558L378.131 480.558C373.458 480.803 369.869 484.789 370.114 489.462L371.634 518.44C371.879 523.113 375.866 526.702 380.538 526.458C385.211 526.213 388.8 522.227 388.555 517.554L387.035 488.576C386.79 483.903 382.803 480.313 378.131 480.558Z" fill="#1B76FF"/>
<g filter="url(#filter3_d)">
<path d="M408.663 457.436L408.663 457.436C404.646 457.677 401.56 461.602 401.77 466.203L404.069 516.395C404.28 520.995 407.708 524.53 411.725 524.289C415.743 524.048 418.829 520.123 418.618 515.522L416.319 465.33C416.109 460.73 412.681 457.195 408.663 457.436Z" fill="#1B76FF"/>
</g>
<path d="M408.414 456.914L408.414 456.914C403.741 457.159 400.152 461.145 400.397 465.818L403.071 516.793C403.316 521.466 407.302 525.056 411.975 524.811C416.648 524.566 420.237 520.58 419.992 515.907L417.318 464.932C417.073 460.259 413.086 456.669 408.414 456.914Z" fill="#1B76FF"/>
<g filter="url(#filter4_d)">
<path d="M438.973 436.428L438.973 436.428C434.679 436.665 431.381 440.518 431.606 445.034L435.042 513.941C435.268 518.457 438.931 521.927 443.225 521.691C447.519 521.454 450.817 517.601 450.592 513.085L447.156 444.178C446.931 439.661 443.267 436.192 438.973 436.428Z" fill="#1B76FF"/>
</g>
<path d="M438.786 434.954L438.786 434.954C434.113 435.199 430.524 439.185 430.769 443.858L434.508 515.147C434.753 519.82 438.74 523.409 443.413 523.165C448.085 522.92 451.675 518.934 451.43 514.261L447.69 442.972C447.445 438.299 443.458 434.709 438.786 434.954Z" fill="#1B76FF"/>
<g filter="url(#filter5_d)">
<path d="M469.649 417.433L469.649 417.433C465.522 417.671 462.352 421.563 462.569 426.125L466.664 512.442C466.881 517.003 470.402 520.508 474.528 520.269C478.655 520.03 481.825 516.138 481.608 511.577L477.512 425.26C477.296 420.698 473.775 417.194 469.649 417.433Z" fill="#1B76FF"/>
</g>
<path d="M469.326 416.181L469.326 416.181C464.653 416.426 461.064 420.412 461.309 425.085L465.947 513.503C466.192 518.175 470.178 521.765 474.851 521.52C479.524 521.276 483.113 517.289 482.868 512.617L478.23 424.199C477.985 419.526 473.998 415.936 469.326 416.181Z" fill="#1B76FF"/>
<g filter="url(#filter6_d)">
<path d="M500.314 403.434L500.314 403.434C495.944 403.673 492.587 407.576 492.817 412.151L497.759 510.793C497.988 515.367 501.717 518.882 506.087 518.642C510.457 518.403 513.814 514.5 513.585 509.925L508.642 411.284C508.413 406.709 504.685 403.194 500.314 403.434Z" fill="#1B76FF"/>
</g>
<path d="M500.115 402.203L500.115 402.203C495.442 402.448 491.853 406.434 492.098 411.107L497.382 511.856C497.628 516.528 501.614 520.118 506.287 519.873C510.96 519.629 514.549 515.642 514.304 510.97L509.019 410.221C508.774 405.548 504.787 401.958 500.115 402.203Z" fill="#1B76FF"/>
<g filter="url(#filter7_d)">
<path d="M531.437 394.426L531.437 394.426C527.236 394.661 524.008 398.493 524.229 402.984L529.385 508.073C529.606 512.565 533.19 516.015 537.392 515.78C541.594 515.545 544.821 511.713 544.601 507.222L539.444 402.133C539.224 397.641 535.639 394.191 531.437 394.426Z" fill="#1B76FF"/>
</g>
<path d="M531.104 391.979L531.104 391.979C526.431 392.224 522.842 396.21 523.087 400.882L528.821 510.21C529.067 514.882 533.053 518.472 537.726 518.227C542.399 517.983 545.988 513.996 545.743 509.324L540.008 399.996C539.763 395.324 535.776 391.734 531.104 391.979Z" fill="#1B76FF"/>
<g filter="url(#filter8_d)">
<path d="M561.906 378.232L561.906 378.232C557.233 378.477 553.644 382.463 553.889 387.136L560.258 508.564C560.503 513.237 564.49 516.826 569.163 516.582C573.835 516.337 577.425 512.351 577.18 507.678L570.81 386.25C570.565 381.577 566.578 377.987 561.906 378.232Z" fill="#782CE4"/>
</g>
<path d="M553.742 253.659L336.933 265.012C332.236 265.258 328.629 269.264 328.875 273.961C329.121 278.658 333.129 282.266 337.825 282.02L554.635 270.668C559.331 270.422 562.939 266.415 562.693 261.718C562.446 257.021 558.439 253.413 553.742 253.659Z" fill="#BEBFCC"/>
<path d="M478.368 287.452L338.492 294.777C333.795 295.023 330.188 299.029 330.434 303.726C330.68 308.423 334.688 312.031 339.384 311.785L479.26 304.461C483.957 304.215 487.565 300.208 487.318 295.511C487.072 290.815 483.065 287.207 478.368 287.452Z" fill="#E7E8F1"/>
<path d="M556.864 313.189L340.055 324.542C335.358 324.788 331.751 328.795 331.997 333.491C332.243 338.188 336.251 341.796 340.947 341.55L557.757 330.198C562.453 329.952 566.061 325.945 565.815 321.248C565.568 316.551 561.561 312.943 556.864 313.189Z" fill="#E7E8F1"/>
<path d="M532.539 349.767L341.9 359.749C337.203 359.995 333.596 364.002 333.842 368.698C334.088 373.395 338.096 377.003 342.792 376.757L533.431 366.775C538.128 366.529 541.736 362.522 541.49 357.826C541.243 353.129 537.236 349.521 532.539 349.767Z" fill="#E7E8F1"/>
<path d="M550.067 129.009L444.455 134.539C439.758 134.785 436.151 138.791 436.397 143.488C436.643 148.185 440.651 151.793 445.347 151.547L550.959 146.017C555.656 145.771 559.263 141.764 559.017 137.067C558.771 132.371 554.764 128.763 550.067 129.009Z" fill="#BEBFCC"/>
<path d="M520.046 160.426L446.015 164.303C441.318 164.549 437.711 168.556 437.957 173.252C438.203 177.949 442.211 181.557 446.907 181.311L520.938 177.435C525.635 177.189 529.243 173.182 528.997 168.485C528.75 163.789 524.743 160.18 520.046 160.426Z" fill="#E7E8F1"/>
<path d="M544.234 189.007L447.578 194.068C442.881 194.314 439.274 198.32 439.52 203.017C439.766 207.714 443.774 211.322 448.47 211.076L545.126 206.015C549.823 205.769 553.431 201.762 553.184 197.065C552.938 192.369 548.931 188.761 544.234 189.007Z" fill="#E7E8F1"/>
<g filter="url(#filter9_d)">
<path d="M351.497 133.909C360.846 130.615 371.014 130.446 380.467 133.429C389.921 136.412 398.148 142.385 403.908 150.446C409.668 158.508 412.648 168.222 412.401 178.124C412.153 188.026 408.691 197.579 402.535 205.344" stroke="#782CE4" stroke-width="8" stroke-linecap="round"/>
</g>
<path d="M351.497 133.909C360.846 130.615 371.014 130.446 380.467 133.429C389.921 136.412 398.148 142.385 403.908 150.446C409.668 158.508 412.648 168.222 412.401 178.124C412.153 188.026 408.691 197.579 402.535 205.344" stroke="#782CE4" stroke-width="8.52074" stroke-linecap="round"/>
<g filter="url(#filter10_d)">
<path d="M402.554 205.32C398.513 210.424 393.427 214.606 387.637 217.586C381.847 220.567 375.487 222.276 368.982 222.601" stroke="#FFCD1D" stroke-width="8" stroke-linecap="round"/>
</g>
<path d="M402.554 205.32C398.513 210.424 393.427 214.606 387.637 217.586C381.847 220.567 375.487 222.276 368.982 222.601" stroke="#FFCD1D" stroke-width="8.52074" stroke-linecap="round"/>
<g filter="url(#filter11_d)">
<path d="M369.093 222.595C358.115 223.17 347.297 219.773 338.622 213.027C329.946 206.281 323.995 196.637 321.858 185.863C319.721 175.089 321.541 163.906 326.985 154.364C332.43 144.822 341.133 137.559 351.501 133.907" stroke="#1B76FF" stroke-width="8" stroke-linecap="round"/>
</g>
<path d="M369.093 222.595C358.115 223.17 347.297 219.773 338.622 213.027C329.946 206.281 323.995 196.637 321.858 185.863C319.721 175.089 321.541 163.906 326.985 154.364C332.43 144.822 341.133 137.559 351.501 133.907" stroke="#1B76FF" stroke-width="8.52074" stroke-linecap="round"/>
<g filter="url(#filter12_d)">
<path d="M916.054 137.293L634.009 72.2352C622.993 69.6942 612 76.5637 609.454 87.5787L516.429 490.161C513.884 501.176 520.751 512.166 531.767 514.707L813.811 579.765C824.827 582.306 835.821 575.436 838.366 564.421L931.391 161.838C933.937 150.823 927.07 139.834 916.054 137.293Z" fill="white"/>
</g>
<path d="M923.862 129.624L630.356 61.9229C618.892 59.2786 607.452 66.4273 604.803 77.8899L507.998 496.832C505.349 508.295 512.495 519.731 523.958 522.375L817.465 590.077C828.928 592.721 840.369 585.572 843.017 574.11L939.823 155.167C942.472 143.705 935.326 132.269 923.862 129.624Z" fill="white"/>
<path opacity="0.3" d="M831.894 402.249C816.689 468.051 750.974 509.078 685.115 493.887C619.256 478.695 578.192 413.038 593.397 347.236C608.602 281.435 674.317 240.408 740.176 255.599C806.036 270.79 847.099 336.448 831.894 402.249ZM624.95 354.514C613.768 402.905 643.966 451.19 692.399 462.362C740.833 473.533 789.16 443.362 800.342 394.971C811.523 346.581 781.325 298.296 732.892 287.124C684.459 275.952 636.131 306.124 624.95 354.514Z" fill="#E7E8F1"/>
<g filter="url(#filter13_d)">
<path d="M671.194 472.311C667.677 480.59 658.042 484.544 650.301 479.966C636.3 471.684 624.043 460.667 614.295 447.516C601.304 429.99 593.24 409.311 590.941 387.623C588.642 365.935 592.19 344.027 601.218 324.171C610.246 304.314 624.425 287.231 642.286 274.693C660.146 262.155 681.038 254.617 702.796 252.862C724.553 251.106 746.385 255.197 766.028 264.71C785.67 274.223 802.409 288.811 814.509 306.964C823.582 320.575 829.798 335.819 832.853 351.774C834.545 360.618 827.55 368.352 818.557 368.852C809.57 369.352 802.027 362.408 799.911 353.662C797.45 343.496 793.219 333.796 787.37 325.021C778.494 311.705 766.215 301.003 751.806 294.025C737.396 287.046 721.381 284.045 705.42 285.333C689.459 286.621 674.133 292.15 661.031 301.348C647.929 310.546 637.527 323.078 630.904 337.644C624.282 352.211 621.679 368.282 623.365 384.192C625.052 400.102 630.967 415.271 640.497 428.128C646.779 436.603 654.482 443.87 663.224 449.63C670.737 454.579 674.713 464.028 671.194 472.311Z" fill="#1B76FF"/>
</g>
<path d="M671.194 472.311C667.677 480.59 658.042 484.544 650.301 479.966C636.3 471.684 624.043 460.667 614.295 447.516C601.304 429.99 593.24 409.311 590.941 387.623C588.642 365.935 592.19 344.027 601.218 324.171C610.246 304.314 624.425 287.231 642.286 274.693C660.146 262.155 681.038 254.617 702.796 252.862C724.553 251.106 746.385 255.197 766.028 264.71C785.67 274.223 802.409 288.811 814.509 306.964C823.582 320.575 829.798 335.819 832.853 351.774C834.545 360.618 827.55 368.352 818.557 368.852C809.57 369.352 802.027 362.408 799.911 353.662C797.45 343.496 793.219 333.796 787.37 325.021C778.494 311.705 766.215 301.003 751.806 294.025C737.396 287.046 721.381 284.045 705.42 285.333C689.459 286.621 674.133 292.15 661.031 301.348C647.929 310.546 637.527 323.078 630.904 337.644C624.282 352.211 621.679 368.282 623.365 384.192C625.052 400.102 630.967 415.271 640.497 428.128C646.779 436.603 654.482 443.87 663.224 449.63C670.737 454.579 674.713 464.028 671.194 472.311Z" fill="#1B76FF"/>
<g filter="url(#filter14_d)">
<path d="M869.224 165.367L659.567 117.007C655.201 116 650.844 118.722 649.835 123.088L649.835 123.088C648.826 127.453 651.548 131.809 655.914 132.816L865.571 181.177C869.937 182.184 874.294 179.461 875.303 175.095C876.312 170.73 873.59 166.375 869.224 165.367Z" fill="#1B76FF"/>
</g>
<path d="M874.529 166.177L654.444 115.411C649.861 114.354 645.288 117.212 644.229 121.795L644.229 121.795C643.17 126.377 646.027 130.949 650.61 132.007L870.694 182.772C875.277 183.829 879.851 180.971 880.91 176.389C881.969 171.806 879.112 167.234 874.529 166.177Z" fill="#1B76FF"/>
<path d="M806.465 182.862L647.337 146.157C642.754 145.1 638.181 147.958 637.122 152.541L637.122 152.541C636.063 157.123 638.92 161.695 643.503 162.752L802.631 199.458C807.214 200.515 811.787 197.657 812.846 193.074C813.905 188.491 811.048 183.919 806.465 182.862Z" fill="#E7E8F1"/>
<path d="M843.032 223.682L640.232 176.903C635.649 175.846 631.076 178.704 630.017 183.287L630.017 183.287C628.958 187.869 631.815 192.441 636.398 193.498L839.197 240.277C843.78 241.334 848.354 238.476 849.413 233.894C850.471 229.311 847.615 224.739 843.032 223.682Z" fill="#E7E8F1"/>
<defs>
<filter id="filter0_d" x="228.863" y="42.5557" width="439.137" height="557.992" filterUnits="userSpaceOnUse" color-interpolation-filters="sRGB">
<feFlood flood-opacity="0" result="BackgroundImageFix"/>
<feColorMatrix in="SourceAlpha" type="matrix" values="0 0 0 0 0 0 0 0 0 0 0 0 0 0 0 0 0 0 127 0"/>
<feOffset dy="3"/>
<feGaussianBlur stdDeviation="20"/>
<feColorMatrix type="matrix" values="0 0 0 0 0.121042 0 0 0 0 0.143938 0 0 0 0 0.35 0 0 0 0.3 0"/>
<feBlend mode="normal" in2="BackgroundImageFix" result="effect1_dropShadow"/>
<feBlend mode="normal" in="SourceGraphic" in2="effect1_dropShadow" result="shape"/>
</filter>
<filter id="filter1_d" x="335.711" y="500.593" width="25.4159" height="33.0256" filterUnits="userSpaceOnUse" color-interpolation-filters="sRGB">
<feFlood flood-opacity="0" result="BackgroundImageFix"/>
<feColorMatrix in="SourceAlpha" type="matrix" values="0 0 0 0 0 0 0 0 0 0 0 0 0 0 0 0 0 0 127 0"/>
<feOffset dy="2"/>
<feGaussianBlur stdDeviation="2.5"/>
<feColorMatrix type="matrix" values="0 0 0 0 0.104167 0 0 0 0 0.4625 0 0 0 0 1 0 0 0 0.2 0"/>
<feBlend mode="normal" in2="BackgroundImageFix" result="effect1_dropShadow"/>
<feBlend mode="normal" in="SourceGraphic" in2="effect1_dropShadow" result="shape"/>
</filter>
<filter id="filter2_d" x="365.102" y="477.546" width="28.465" height="55.9233" filterUnits="userSpaceOnUse" color-interpolation-filters="sRGB">
<feFlood flood-opacity="0" result="BackgroundImageFix"/>
<feColorMatrix in="SourceAlpha" type="matrix" values="0 0 0 0 0 0 0 0 0 0 0 0 0 0 0 0 0 0 127 0"/>
<feOffset dy="2"/>
<feGaussianBlur stdDeviation="2.5"/>
<feColorMatrix type="matrix" values="0 0 0 0 0.104167 0 0 0 0 0.4625 0 0 0 0 1 0 0 0 0.2 0"/>
<feBlend mode="normal" in2="BackgroundImageFix" result="effect1_dropShadow"/>
<feBlend mode="normal" in="SourceGraphic" in2="effect1_dropShadow" result="shape"/>
</filter>
<filter id="filter3_d" x="396.76" y="454.425" width="26.8684" height="76.8759" filterUnits="userSpaceOnUse" color-interpolation-filters="sRGB">
<feFlood flood-opacity="0" result="BackgroundImageFix"/>
<feColorMatrix in="SourceAlpha" type="matrix" values="0 0 0 0 0 0 0 0 0 0 0 0 0 0 0 0 0 0 127 0"/>
<feOffset dy="2"/>
<feGaussianBlur stdDeviation="2.5"/>
<feColorMatrix type="matrix" values="0 0 0 0 0.104167 0 0 0 0 0.4625 0 0 0 0 1 0 0 0 0.2 0"/>
<feBlend mode="normal" in2="BackgroundImageFix" result="effect1_dropShadow"/>
<feBlend mode="normal" in="SourceGraphic" in2="effect1_dropShadow" result="shape"/>
</filter>
<filter id="filter4_d" x="426.595" y="433.417" width="29.0078" height="95.2851" filterUnits="userSpaceOnUse" color-interpolation-filters="sRGB">
<feFlood flood-opacity="0" result="BackgroundImageFix"/>
<feColorMatrix in="SourceAlpha" type="matrix" values="0 0 0 0 0 0 0 0 0 0 0 0 0 0 0 0 0 0 127 0"/>
<feOffset dy="2"/>
<feGaussianBlur stdDeviation="2.5"/>
<feColorMatrix type="matrix" values="0 0 0 0 0.104167 0 0 0 0 0.4625 0 0 0 0 1 0 0 0 0.2 0"/>
<feBlend mode="normal" in2="BackgroundImageFix" result="effect1_dropShadow"/>
<feBlend mode="normal" in="SourceGraphic" in2="effect1_dropShadow" result="shape"/>
</filter>
<filter id="filter5_d" x="457.558" y="414.421" width="29.0603" height="112.859" filterUnits="userSpaceOnUse" color-interpolation-filters="sRGB">
<feFlood flood-opacity="0" result="BackgroundImageFix"/>
<feColorMatrix in="SourceAlpha" type="matrix" values="0 0 0 0 0 0 0 0 0 0 0 0 0 0 0 0 0 0 127 0"/>
<feOffset dy="2"/>
<feGaussianBlur stdDeviation="2.5"/>
<feColorMatrix type="matrix" values="0 0 0 0 0.104167 0 0 0 0 0.4625 0 0 0 0 1 0 0 0 0.2 0"/>
<feBlend mode="normal" in2="BackgroundImageFix" result="effect1_dropShadow"/>
<feBlend mode="normal" in="SourceGraphic" in2="effect1_dropShadow" result="shape"/>
</filter>
<filter id="filter6_d" x="487.806" y="401.422" width="30.7905" height="125.232" filterUnits="userSpaceOnUse" color-interpolation-filters="sRGB">
<feFlood flood-opacity="0" result="BackgroundImageFix"/>
<feColorMatrix in="SourceAlpha" type="matrix" values="0 0 0 0 0 0 0 0 0 0 0 0 0 0 0 0 0 0 127 0"/>
<feOffset dy="3"/>
<feGaussianBlur stdDeviation="2.5"/>
<feColorMatrix type="matrix" values="0 0 0 0 0.104167 0 0 0 0 0.4625 0 0 0 0 1 0 0 0 0.15 0"/>
<feBlend mode="normal" in2="BackgroundImageFix" result="effect1_dropShadow"/>
<feBlend mode="normal" in="SourceGraphic" in2="effect1_dropShadow" result="shape"/>
</filter>
<filter id="filter7_d" x="519.958" y="392.284" width="28.9144" height="129.898" filterUnits="userSpaceOnUse" color-interpolation-filters="sRGB">
<feFlood flood-opacity="0" result="BackgroundImageFix"/>
<feColorMatrix in="SourceAlpha" type="matrix" values="0 0 0 0 0 0 0 0 0 0 0 0 0 0 0 0 0 0 127 0"/>
<feOffset dy="2.13018"/>
<feGaussianBlur stdDeviation="2.13018"/>
<feColorMatrix type="matrix" values="0 0 0 0 0.104167 0 0 0 0 0.4625 0 0 0 0 1 0 0 0 0.15 0"/>
<feBlend mode="normal" in2="BackgroundImageFix" result="effect1_dropShadow"/>
<feBlend mode="normal" in="SourceGraphic" in2="effect1_dropShadow" result="shape"/>
</filter>
<filter id="filter8_d" x="549.617" y="376.09" width="31.8351" height="146.894" filterUnits="userSpaceOnUse" color-interpolation-filters="sRGB">
<feFlood flood-opacity="0" result="BackgroundImageFix"/>
<feColorMatrix in="SourceAlpha" type="matrix" values="0 0 0 0 0 0 0 0 0 0 0 0 0 0 0 0 0 0 127 0"/>
<feOffset dy="2.13018"/>
<feGaussianBlur stdDeviation="2.13018"/>
<feColorMatrix type="matrix" values="0 0 0 0 0.470588 0 0 0 0 0.172549 0 0 0 0 0.894118 0 0 0 0.23 0"/>
<feBlend mode="normal" in2="BackgroundImageFix" result="effect1_dropShadow"/>
<feBlend mode="normal" in="SourceGraphic" in2="effect1_dropShadow" result="shape"/>
</filter>
<filter id="filter9_d" x="344.496" y="127.309" width="74.9193" height="88.0353" filterUnits="userSpaceOnUse" color-interpolation-filters="sRGB">
<feFlood flood-opacity="0" result="BackgroundImageFix"/>
<feColorMatrix in="SourceAlpha" type="matrix" values="0 0 0 0 0 0 0 0 0 0 0 0 0 0 0 0 0 0 127 0"/>
<feOffset dy="3"/>
<feGaussianBlur stdDeviation="1.5"/>
<feColorMatrix type="matrix" values="0 0 0 0 0.470588 0 0 0 0 0.172549 0 0 0 0 0.894118 0 0 0 0.2 0"/>
<feBlend mode="normal" in2="BackgroundImageFix" result="effect1_dropShadow"/>
<feBlend mode="normal" in="SourceGraphic" in2="effect1_dropShadow" result="shape"/>
</filter>
<filter id="filter10_d" x="359.982" y="198.32" width="51.5722" height="35.2812" filterUnits="userSpaceOnUse" color-interpolation-filters="sRGB">
<feFlood flood-opacity="0" result="BackgroundImageFix"/>
<feColorMatrix in="SourceAlpha" type="matrix" values="0 0 0 0 0 0 0 0 0 0 0 0 0 0 0 0 0 0 127 0"/>
<feOffset dy="2"/>
<feGaussianBlur stdDeviation="2.5"/>
<feColorMatrix type="matrix" values="0 0 0 0 1 0 0 0 0 0.80475 0 0 0 0 0.1125 0 0 0 0.12 0"/>
<feBlend mode="normal" in2="BackgroundImageFix" result="effect1_dropShadow"/>
<feBlend mode="normal" in="SourceGraphic" in2="effect1_dropShadow" result="shape"/>
</filter>
<filter id="filter11_d" x="313.986" y="129.906" width="62.1073" height="102.752" filterUnits="userSpaceOnUse" color-interpolation-filters="sRGB">
<feFlood flood-opacity="0" result="BackgroundImageFix"/>
<feColorMatrix in="SourceAlpha" type="matrix" values="0 0 0 0 0 0 0 0 0 0 0 0 0 0 0 0 0 0 127 0"/>
<feOffset dy="3"/>
<feGaussianBlur stdDeviation="1.5"/>
<feColorMatrix type="matrix" values="0 0 0 0 0.104167 0 0 0 0 0.4625 0 0 0 0 1 0 0 0 0.2 0"/>
<feBlend mode="normal" in2="BackgroundImageFix" result="effect1_dropShadow"/>
<feBlend mode="normal" in="SourceGraphic" in2="effect1_dropShadow" result="shape"/>
</filter>
<filter id="filter12_d" x="475.899" y="34.7068" width="496.022" height="588.586" filterUnits="userSpaceOnUse" color-interpolation-filters="sRGB">
<feFlood flood-opacity="0" result="BackgroundImageFix"/>
<feColorMatrix in="SourceAlpha" type="matrix" values="0 0 0 0 0 0 0 0 0 0 0 0 0 0 0 0 0 0 127 0"/>
<feOffset dy="3"/>
<feGaussianBlur stdDeviation="20"/>
<feColorMatrix type="matrix" values="0 0 0 0 0.121042 0 0 0 0 0.143938 0 0 0 0 0.35 0 0 0 0.25 0"/>
<feBlend mode="normal" in2="BackgroundImageFix" result="effect1_dropShadow"/>
<feBlend mode="normal" in="SourceGraphic" in2="effect1_dropShadow" result="shape"/>
</filter>
<filter id="filter13_d" x="585.26" y="252.465" width="252.847" height="239.434" filterUnits="userSpaceOnUse" color-interpolation-filters="sRGB">
<feFlood flood-opacity="0" result="BackgroundImageFix"/>
<feColorMatrix in="SourceAlpha" type="matrix" values="0 0 0 0 0 0 0 0 0 0 0 0 0 0 0 0 0 0 127 0"/>
<feOffset dy="5"/>
<feGaussianBlur stdDeviation="2.5"/>
<feColorMatrix type="matrix" values="0 0 0 0 0.104167 0 0 0 0 0.4625 0 0 0 0 1 0 0 0 0.22 0"/>
<feBlend mode="normal" in2="BackgroundImageFix" result="effect1_dropShadow"/>
<feBlend mode="normal" in="SourceGraphic" in2="effect1_dropShadow" result="shape"/>
</filter>
<filter id="filter14_d" x="644.625" y="114.797" width="235.888" height="74.5885" filterUnits="userSpaceOnUse" color-interpolation-filters="sRGB">
<feFlood flood-opacity="0" result="BackgroundImageFix"/>
<feColorMatrix in="SourceAlpha" type="matrix" values="0 0 0 0 0 0 0 0 0 0 0 0 0 0 0 0 0 0 127 0"/>
<feOffset dy="3"/>
<feGaussianBlur stdDeviation="2.5"/>
<feColorMatrix type="matrix" values="0 0 0 0 0.104167 0 0 0 0 0.4625 0 0 0 0 1 0 0 0 0.2 0"/>
<feBlend mode="normal" in2="BackgroundImageFix" result="effect1_dropShadow"/>
<feBlend mode="normal" in="SourceGraphic" in2="effect1_dropShadow" result="shape"/>
</filter>
</defs>
</svg>
