<svg width="1209" height="652" viewBox="0 0 1209 652" fill="none" xmlns="http://www.w3.org/2000/svg">
<path d="M0 0H1209V652H0V0Z" fill="#FFCD1D"/>
<g filter="url(#filter0_d)">
<path d="M776.709 100.746H483.009C472.269 100.746 463.562 109.453 463.562 120.192V558.553C463.562 569.293 472.269 578 483.009 578H776.709C787.449 578 796.156 569.293 796.156 558.553V120.192C796.156 109.453 787.449 100.746 776.709 100.746Z" fill="white"/>
</g>
<path d="M780.89 93.9526H478.828C467.782 93.9526 458.828 102.907 458.828 113.953V564.794C458.828 575.839 467.782 584.794 478.828 584.794H780.89C791.936 584.794 800.89 575.839 800.89 564.794V113.953C800.89 102.907 791.936 93.9526 780.89 93.9526Z" fill="white"/>
<path d="M576.165 492.58H544.308C539.605 492.58 535.792 496.393 535.792 501.096C535.792 505.799 539.605 509.612 544.308 509.612H576.165C580.868 509.612 584.681 505.799 584.681 501.096C584.681 496.393 580.868 492.58 576.165 492.58Z" fill="#E7E8F1"/>
<path d="M658.654 132.873H548.365C543.662 132.873 539.849 136.686 539.849 141.389C539.849 146.092 543.662 149.905 548.365 149.905H658.654C663.357 149.905 667.17 146.092 667.17 141.389C667.17 136.686 663.357 132.873 658.654 132.873Z" fill="#E7E8F1"/>
<path d="M764.541 534.431H495.177C490.474 534.431 486.661 538.244 486.661 542.947C486.661 547.65 490.474 551.463 495.177 551.463H764.541C769.244 551.463 773.057 547.65 773.057 542.947C773.057 538.244 769.244 534.431 764.541 534.431Z" fill="#E7E8F1"/>
<g filter="url(#filter1_d)">
<path d="M753.592 184.221H506.126C498.721 184.221 492.718 190.224 492.718 197.629V444.854C492.718 452.258 498.721 458.261 506.126 458.261H753.592C760.997 458.261 767 452.258 767 444.854V197.629C767 190.224 760.997 184.221 753.592 184.221Z" fill="#FFCD1D"/>
</g>
<path d="M759.057 178.169H500.661C492.929 178.169 486.661 184.437 486.661 192.169V450.313C486.661 458.045 492.929 464.313 500.661 464.313H759.057C766.789 464.313 773.057 458.045 773.057 450.313V192.169C773.057 184.437 766.789 178.169 759.057 178.169Z" fill="#FFCD1D"/>
<g filter="url(#filter2_d)">
<path d="M606.714 278.148C603.534 276.278 599.525 278.572 599.525 282.262V360.221C599.525 363.911 603.533 366.205 606.714 364.335L673.038 325.356C676.177 323.512 676.177 318.973 673.038 317.128L606.714 278.148Z" fill="white"/>
</g>
<path d="M602.667 272.475C599.068 270.359 594.531 272.955 594.531 277.13V365.353C594.531 369.528 599.067 372.124 602.667 370.008L677.722 325.898C681.274 323.811 681.274 318.675 677.722 316.587L602.667 272.475Z" fill="white"/>
<g filter="url(#filter3_d)">
<path d="M507.118 158.254C516.442 158.254 524 150.703 524 141.387C524 132.072 516.442 124.52 507.118 124.52C497.794 124.52 490.236 132.072 490.236 141.387C490.236 150.703 497.794 158.254 507.118 158.254Z" fill="#FFCD1D"/>
</g>
<path d="M507.118 161.826C518.416 161.826 527.575 152.675 527.575 141.387C527.575 130.099 518.416 120.948 507.118 120.948C495.82 120.948 486.661 130.099 486.661 141.387C486.661 152.675 495.82 161.826 507.118 161.826Z" fill="#FFCD1D"/>
<g filter="url(#filter4_d)">
<path d="M507.118 520C517.568 520 526.038 511.537 526.038 501.096C526.038 490.656 517.568 482.192 507.118 482.192C496.668 482.192 488.197 490.656 488.197 501.096C488.197 511.537 496.668 520 507.118 520Z" fill="#782CE4"/>
</g>
<path d="M507.118 521.535C518.416 521.535 527.575 512.384 527.575 501.096C527.575 489.808 518.416 480.657 507.118 480.657C495.82 480.657 486.661 489.808 486.661 501.096C486.661 512.384 495.82 521.535 507.118 521.535Z" fill="#782CE4"/>
<g filter="url(#filter5_d)">
<path d="M900.57 70.0132H723.693C712.236 70.0132 702.948 79.3012 702.948 90.7586V259.255C702.948 270.712 712.236 280 723.693 280H900.57C912.027 280 921.315 270.712 921.315 259.255V90.7586C921.315 79.3012 912.027 70.0132 900.57 70.0132Z" fill="white"/>
</g>
<path d="M902.935 67.2056H721.328C709.564 67.2056 700.028 76.742 700.028 88.5058V261.507C700.028 273.271 709.564 282.808 721.328 282.808H902.935C914.699 282.808 924.235 273.271 924.235 261.507V88.5058C924.235 76.742 914.699 67.2056 902.935 67.2056Z" fill="white"/>
<g filter="url(#filter6_d)">
<path d="M753 136.071C753 131.618 749.748 128.008 745.736 128.008C741.724 128.008 738.471 131.618 738.471 136.071V235.937C738.471 240.39 741.724 244 745.736 244C749.748 244 753 240.39 753 235.937V136.071Z" fill="#FFCD1D"/>
</g>
<path d="M754.035 134.607C754.035 130.023 750.32 126.307 745.736 126.307C741.152 126.307 737.436 130.023 737.436 134.607V237.401C737.436 241.985 741.152 245.701 745.736 245.701C750.32 245.701 754.035 241.985 754.035 237.401V134.607Z" fill="#FFCD1D"/>
<g filter="url(#filter7_d)">
<path d="M786 186.171C786 181.812 782.836 178.279 778.934 178.279C775.031 178.279 771.867 181.812 771.867 186.171V236.109C771.867 240.467 775.031 244 778.934 244C782.836 244 786 240.467 786 236.109V186.171Z" fill="#782CE4"/>
</g>
<path d="M787.233 184.878C787.233 180.294 783.518 176.578 778.934 176.578C774.35 176.578 770.634 180.294 770.634 184.878V237.401C770.634 241.985 774.35 245.701 778.934 245.701C783.518 245.701 787.233 241.985 787.233 237.401V184.878Z" fill="#782CE4"/>
<g filter="url(#filter8_d)">
<path d="M819 151.746C819 147.312 815.925 143.718 812.133 143.718C808.34 143.718 805.265 147.312 805.265 151.746V235.973C805.265 240.406 808.34 244 812.133 244C815.925 244 819 240.406 819 235.973V151.746Z" fill="#FFCD1D"/>
</g>
<path d="M820.432 150.317C820.432 145.733 816.716 142.017 812.133 142.017C807.549 142.017 803.833 145.733 803.833 150.317V237.401C803.833 241.985 807.549 245.701 812.133 245.701C816.716 245.701 820.432 241.985 820.432 237.401V150.317Z" fill="#FFCD1D"/>
<g filter="url(#filter9_d)">
<path d="M852 114.114C852 109.641 849.015 106.014 845.332 106.014C841.649 106.014 838.663 109.641 838.663 114.114V235.9C838.663 240.373 841.649 244 845.332 244C849.015 244 852 240.373 852 235.9V114.114Z" fill="#782CE4"/>
</g>
<path d="M853.631 112.613C853.631 108.029 849.916 104.313 845.332 104.313C840.748 104.313 837.032 108.029 837.032 112.613V237.401C837.032 241.985 840.748 245.701 845.332 245.701C849.916 245.701 853.631 241.985 853.631 237.401V112.613Z" fill="#782CE4"/>
<g filter="url(#filter10_d)">
<path d="M884 165.91C884 161.699 881.551 158.285 878.531 158.285C875.51 158.285 873.061 161.699 873.061 165.91V234.374C873.061 238.586 875.51 242 878.531 242C881.551 242 884 238.586 884 234.374V165.91Z" fill="#FFCD1D"/>
</g>
<path d="M886.83 162.884C886.83 158.3 883.114 154.584 878.531 154.584C873.947 154.584 870.231 158.3 870.231 162.884V237.401C870.231 241.985 873.947 245.701 878.531 245.701C883.114 245.701 886.83 241.985 886.83 237.401V162.884Z" fill="#FFCD1D"/>
<g filter="url(#filter11_d)">
<path d="M486.115 362.497H305.768C295.7 362.497 287.538 370.658 287.538 380.726V546.771C287.538 556.838 295.7 565 305.768 565H486.115C496.183 565 504.345 556.838 504.345 546.771V380.726C504.345 370.658 496.183 362.497 486.115 362.497Z" fill="white"/>
</g>
<path d="M488.422 359.906H303.461C293.135 359.906 284.765 368.277 284.765 378.602V548.895C284.765 559.22 293.135 567.59 303.461 567.59H488.422C498.748 567.59 507.118 559.22 507.118 548.895V378.602C507.118 368.277 498.748 359.906 488.422 359.906Z" fill="white"/>
<g filter="url(#filter12_d)">
<path d="M462.25 463.749C462.25 476.852 458.361 489.661 451.075 500.555C443.789 511.451 433.432 519.943 421.316 524.957C409.199 529.971 395.867 531.283 383.004 528.727C370.141 526.171 358.326 519.86 349.053 510.595C339.779 501.33 333.464 489.526 330.905 476.674C328.347 463.822 329.66 450.502 334.678 438.396C339.697 426.29 348.196 415.942 359.101 408.663C370.005 401.383 382.825 397.498 395.94 397.498V463.749H462.25Z" fill="#FFCD1D"/>
</g>
<path d="M465.461 463.749C465.461 477.487 461.384 490.916 453.745 502.338C446.106 513.761 435.248 522.664 422.545 527.921C409.841 533.178 395.863 534.554 382.377 531.874C368.892 529.194 356.504 522.578 346.782 512.864C337.059 503.15 330.438 490.774 327.755 477.3C325.073 463.826 326.45 449.86 331.711 437.168C336.973 424.476 345.884 413.627 357.317 405.995C368.749 398.363 382.19 394.289 395.94 394.289V463.749H465.461Z" fill="#FFCD1D"/>
<g filter="url(#filter13_d)">
<path d="M398 397C406.503 397 414.922 398.674 422.778 401.924C430.633 405.175 437.771 409.94 443.784 415.947C449.796 421.954 454.565 429.086 457.819 436.935C461.073 444.783 462.748 453.195 462.748 461.691H398V397Z" fill="#782CE4"/>
</g>
<path d="M395.94 394.289C405.07 394.289 414.11 396.086 422.545 399.576C430.979 403.067 438.643 408.183 445.099 414.633C451.554 421.083 456.675 428.74 460.169 437.168C463.663 445.595 465.461 454.627 465.461 463.749H395.94V394.289Z" fill="#782CE4"/>
<defs>
<filter id="filter0_d" x="427.562" y="67.7461" width="404.593" height="549.254" filterUnits="userSpaceOnUse" color-interpolation-filters="sRGB">
<feFlood flood-opacity="0" result="BackgroundImageFix"/>
<feColorMatrix in="SourceAlpha" type="matrix" values="0 0 0 0 0 0 0 0 0 0 0 0 0 0 0 0 0 0 127 0"/>
<feOffset dy="3"/>
<feGaussianBlur stdDeviation="18"/>
<feColorMatrix type="matrix" values="0 0 0 0 1 0 0 0 0 0.587917 0 0 0 0 0.104167 0 0 0 0.65 0"/>
<feBlend mode="normal" in2="BackgroundImageFix" result="effect1_dropShadow"/>
<feBlend mode="normal" in="SourceGraphic" in2="effect1_dropShadow" result="shape"/>
</filter>
<filter id="filter1_d" x="472.718" y="169.221" width="314.282" height="314.041" filterUnits="userSpaceOnUse" color-interpolation-filters="sRGB">
<feFlood flood-opacity="0" result="BackgroundImageFix"/>
<feColorMatrix in="SourceAlpha" type="matrix" values="0 0 0 0 0 0 0 0 0 0 0 0 0 0 0 0 0 0 127 0"/>
<feOffset dy="5"/>
<feGaussianBlur stdDeviation="10"/>
<feColorMatrix type="matrix" values="0 0 0 0 1 0 0 0 0 0.80475 0 0 0 0 0.1125 0 0 0 1 0"/>
<feBlend mode="normal" in2="BackgroundImageFix" result="effect1_dropShadow"/>
<feBlend mode="normal" in="SourceGraphic" in2="effect1_dropShadow" result="shape"/>
</filter>
<filter id="filter2_d" x="581.525" y="271.483" width="111.867" height="123.517" filterUnits="userSpaceOnUse" color-interpolation-filters="sRGB">
<feFlood flood-opacity="0" result="BackgroundImageFix"/>
<feColorMatrix in="SourceAlpha" type="matrix" values="0 0 0 0 0 0 0 0 0 0 0 0 0 0 0 0 0 0 127 0"/>
<feOffset dy="12"/>
<feGaussianBlur stdDeviation="9"/>
<feColorMatrix type="matrix" values="0 0 0 0 1 0 0 0 0 0.587917 0 0 0 0 0.104167 0 0 0 0.33 0"/>
<feBlend mode="normal" in2="BackgroundImageFix" result="effect1_dropShadow"/>
<feBlend mode="normal" in="SourceGraphic" in2="effect1_dropShadow" result="shape"/>
</filter>
<filter id="filter3_d" x="484.236" y="122.52" width="45.764" height="45.7343" filterUnits="userSpaceOnUse" color-interpolation-filters="sRGB">
<feFlood flood-opacity="0" result="BackgroundImageFix"/>
<feColorMatrix in="SourceAlpha" type="matrix" values="0 0 0 0 0 0 0 0 0 0 0 0 0 0 0 0 0 0 127 0"/>
<feOffset dy="4"/>
<feGaussianBlur stdDeviation="3"/>
<feColorMatrix type="matrix" values="0 0 0 0 1 0 0 0 0 0.80475 0 0 0 0 0.1125 0 0 0 0.2 0"/>
<feBlend mode="normal" in2="BackgroundImageFix" result="effect1_dropShadow"/>
<feBlend mode="normal" in="SourceGraphic" in2="effect1_dropShadow" result="shape"/>
</filter>
<filter id="filter4_d" x="485.197" y="478.192" width="49.841" height="49.8077" filterUnits="userSpaceOnUse" color-interpolation-filters="sRGB">
<feFlood flood-opacity="0" result="BackgroundImageFix"/>
<feColorMatrix in="SourceAlpha" type="matrix" values="0 0 0 0 0 0 0 0 0 0 0 0 0 0 0 0 0 0 127 0"/>
<feOffset dx="3" dy="2"/>
<feGaussianBlur stdDeviation="3"/>
<feColorMatrix type="matrix" values="0 0 0 0 0.470588 0 0 0 0 0.172549 0 0 0 0 0.894118 0 0 0 0.2 0"/>
<feBlend mode="normal" in2="BackgroundImageFix" result="effect1_dropShadow"/>
<feBlend mode="normal" in="SourceGraphic" in2="effect1_dropShadow" result="shape"/>
</filter>
<filter id="filter5_d" x="688.748" y="59.8703" width="246.768" height="238.387" filterUnits="userSpaceOnUse" color-interpolation-filters="sRGB">
<feFlood flood-opacity="0" result="BackgroundImageFix"/>
<feColorMatrix in="SourceAlpha" type="matrix" values="0 0 0 0 0 0 0 0 0 0 0 0 0 0 0 0 0 0 127 0"/>
<feOffset dy="4.05717"/>
<feGaussianBlur stdDeviation="7.10005"/>
<feColorMatrix type="matrix" values="0 0 0 0 0.121042 0 0 0 0 0.143938 0 0 0 0 0.35 0 0 0 0.08 0"/>
<feBlend mode="normal" in2="BackgroundImageFix" result="effect1_dropShadow"/>
<feBlend mode="normal" in="SourceGraphic" in2="effect1_dropShadow" result="shape"/>
</filter>
<filter id="filter6_d" x="732.471" y="128.008" width="26.5286" height="127.992" filterUnits="userSpaceOnUse" color-interpolation-filters="sRGB">
<feFlood flood-opacity="0" result="BackgroundImageFix"/>
<feColorMatrix in="SourceAlpha" type="matrix" values="0 0 0 0 0 0 0 0 0 0 0 0 0 0 0 0 0 0 127 0"/>
<feOffset dy="6"/>
<feGaussianBlur stdDeviation="3"/>
<feColorMatrix type="matrix" values="0 0 0 0 1 0 0 0 0 0.80475 0 0 0 0 0.1125 0 0 0 0.2 0"/>
<feBlend mode="normal" in2="BackgroundImageFix" result="effect1_dropShadow"/>
<feBlend mode="normal" in="SourceGraphic" in2="effect1_dropShadow" result="shape"/>
</filter>
<filter id="filter7_d" x="765.867" y="178.279" width="26.1326" height="77.7209" filterUnits="userSpaceOnUse" color-interpolation-filters="sRGB">
<feFlood flood-opacity="0" result="BackgroundImageFix"/>
<feColorMatrix in="SourceAlpha" type="matrix" values="0 0 0 0 0 0 0 0 0 0 0 0 0 0 0 0 0 0 127 0"/>
<feOffset dy="6"/>
<feGaussianBlur stdDeviation="3"/>
<feColorMatrix type="matrix" values="0 0 0 0 0.470588 0 0 0 0 0.172549 0 0 0 0 0.894118 0 0 0 0.2 0"/>
<feBlend mode="normal" in2="BackgroundImageFix" result="effect1_dropShadow"/>
<feBlend mode="normal" in="SourceGraphic" in2="effect1_dropShadow" result="shape"/>
</filter>
<filter id="filter8_d" x="799.265" y="143.718" width="25.7346" height="112.282" filterUnits="userSpaceOnUse" color-interpolation-filters="sRGB">
<feFlood flood-opacity="0" result="BackgroundImageFix"/>
<feColorMatrix in="SourceAlpha" type="matrix" values="0 0 0 0 0 0 0 0 0 0 0 0 0 0 0 0 0 0 127 0"/>
<feOffset dy="6"/>
<feGaussianBlur stdDeviation="3"/>
<feColorMatrix type="matrix" values="0 0 0 0 1 0 0 0 0 0.80475 0 0 0 0 0.1125 0 0 0 0.2 0"/>
<feBlend mode="normal" in2="BackgroundImageFix" result="effect1_dropShadow"/>
<feBlend mode="normal" in="SourceGraphic" in2="effect1_dropShadow" result="shape"/>
</filter>
<filter id="filter9_d" x="832.663" y="105.014" width="25.3366" height="149.986" filterUnits="userSpaceOnUse" color-interpolation-filters="sRGB">
<feFlood flood-opacity="0" result="BackgroundImageFix"/>
<feColorMatrix in="SourceAlpha" type="matrix" values="0 0 0 0 0 0 0 0 0 0 0 0 0 0 0 0 0 0 127 0"/>
<feOffset dy="5"/>
<feGaussianBlur stdDeviation="3"/>
<feColorMatrix type="matrix" values="0 0 0 0 0.470588 0 0 0 0 0.172549 0 0 0 0 0.894118 0 0 0 0.2 0"/>
<feBlend mode="normal" in2="BackgroundImageFix" result="effect1_dropShadow"/>
<feBlend mode="normal" in="SourceGraphic" in2="effect1_dropShadow" result="shape"/>
</filter>
<filter id="filter10_d" x="869.004" y="158.285" width="19.053" height="91.8296" filterUnits="userSpaceOnUse" color-interpolation-filters="sRGB">
<feFlood flood-opacity="0" result="BackgroundImageFix"/>
<feColorMatrix in="SourceAlpha" type="matrix" values="0 0 0 0 0 0 0 0 0 0 0 0 0 0 0 0 0 0 127 0"/>
<feOffset dy="4.05717"/>
<feGaussianBlur stdDeviation="2.02859"/>
<feColorMatrix type="matrix" values="0 0 0 0 1 0 0 0 0 0.80475 0 0 0 0 0.1125 0 0 0 0.18 0"/>
<feBlend mode="normal" in2="BackgroundImageFix" result="effect1_dropShadow"/>
<feBlend mode="normal" in="SourceGraphic" in2="effect1_dropShadow" result="shape"/>
</filter>
<filter id="filter11_d" x="272.538" y="351.497" width="246.807" height="232.503" filterUnits="userSpaceOnUse" color-interpolation-filters="sRGB">
<feFlood flood-opacity="0" result="BackgroundImageFix"/>
<feColorMatrix in="SourceAlpha" type="matrix" values="0 0 0 0 0 0 0 0 0 0 0 0 0 0 0 0 0 0 127 0"/>
<feOffset dy="4"/>
<feGaussianBlur stdDeviation="7.5"/>
<feColorMatrix type="matrix" values="0 0 0 0 0.121042 0 0 0 0 0.143938 0 0 0 0 0.35 0 0 0 0.1 0"/>
<feBlend mode="normal" in2="BackgroundImageFix" result="effect1_dropShadow"/>
<feBlend mode="normal" in="SourceGraphic" in2="effect1_dropShadow" result="shape"/>
</filter>
<filter id="filter12_d" x="299.631" y="389.498" width="192.619" height="192.502" filterUnits="userSpaceOnUse" color-interpolation-filters="sRGB">
<feFlood flood-opacity="0" result="BackgroundImageFix"/>
<feColorMatrix in="SourceAlpha" type="matrix" values="0 0 0 0 0 0 0 0 0 0 0 0 0 0 0 0 0 0 127 0"/>
<feOffset dy="22"/>
<feGaussianBlur stdDeviation="15"/>
<feColorMatrix type="matrix" values="0 0 0 0 1 0 0 0 0 0.80475 0 0 0 0 0.1125 0 0 0 0.2 0"/>
<feBlend mode="normal" in2="BackgroundImageFix" result="effect1_dropShadow"/>
<feBlend mode="normal" in="SourceGraphic" in2="effect1_dropShadow" result="shape"/>
</filter>
<filter id="filter13_d" x="385" y="396" width="80.7477" height="80.6909" filterUnits="userSpaceOnUse" color-interpolation-filters="sRGB">
<feFlood flood-opacity="0" result="BackgroundImageFix"/>
<feColorMatrix in="SourceAlpha" type="matrix" values="0 0 0 0 0 0 0 0 0 0 0 0 0 0 0 0 0 0 127 0"/>
<feOffset dx="-5" dy="7"/>
<feGaussianBlur stdDeviation="4"/>
<feColorMatrix type="matrix" values="0 0 0 0 0.470588 0 0 0 0 0.172549 0 0 0 0 0.894118 0 0 0 0.15 0"/>
<feBlend mode="normal" in2="BackgroundImageFix" result="effect1_dropShadow"/>
<feBlend mode="normal" in="SourceGraphic" in2="effect1_dropShadow" result="shape"/>
</filter>
</defs>
</svg>
