<svg width="94" height="98" viewBox="0 0 94 98" fill="none" xmlns="http://www.w3.org/2000/svg">
<path opacity="0.06" d="M68 0H26C11.6406 0 0 11.6406 0 26V68C0 82.3594 11.6406 94 26 94H68C82.3594 94 94 82.3594 94 68V26C94 11.6406 82.3594 0 68 0Z" fill="#F4263E"/>
<g filter="url(#filter0_d)">
<path d="M22.79 31.9716C22.7648 31.9591 22.7397 31.9842 22.7586 32.003L41.7904 58.05C41.7904 58.0562 41.803 58.0625 41.8093 58.0625H52.7439C52.7502 58.0625 52.7628 58.0562 52.7628 58.05L71.7946 32.003C71.8073 31.9842 71.7884 31.9527 71.7632 31.9653" fill="#F4263E"/>
<path d="M52.3848 67.1852L43.9479 75.6284C43.1552 76.4211 41.8025 75.8612 41.8025 74.7413V58.0562H52.7561V66.298C52.7498 66.6316 52.6176 66.9523 52.3848 67.1852Z" fill="#D8162C"/>
<path d="M73.5622 29.5746C73.5622 33.2048 61.7972 36.1493 47.27 36.1493C32.7554 36.1493 20.984 33.2048 20.984 29.5746C20.984 25.9444 32.7554 23 47.2763 23C61.7972 23 73.5622 25.9444 73.5622 29.5746Z" fill="#D8162C"/>
</g>
<path d="M20.9423 30.6488C20.9152 30.6353 20.8882 30.6623 20.9085 30.6826L41.3766 58.6953C41.3766 58.702 41.3902 58.7088 41.3969 58.7088H53.1568C53.1636 58.7088 53.1771 58.702 53.1771 58.6953L73.6453 30.6826C73.6589 30.6623 73.6386 30.6285 73.6115 30.642" fill="#F4263E"/>
<path d="M52.7706 68.5199L43.697 77.6003C42.8444 78.4529 41.3896 77.8507 41.3896 76.6463V58.7019H53.1699V67.5658C53.1631 67.9245 53.021 68.2695 52.7706 68.5199Z" fill="#D8162C"/>
<path d="M75.5463 28.0708C75.5463 31.975 62.8933 35.1417 47.2698 35.1417C31.6598 35.1417 19 31.975 19 28.0708C19 24.1666 31.6598 21 47.2765 21C62.8933 21 75.5463 24.1666 75.5463 28.0708Z" fill="#D8162C"/>
<defs>
<filter id="filter0_d" x="5.98404" y="14" width="82.5782" height="82.9999" filterUnits="userSpaceOnUse" color-interpolation-filters="sRGB">
<feFlood flood-opacity="0" result="BackgroundImageFix"/>
<feColorMatrix in="SourceAlpha" type="matrix" values="0 0 0 0 0 0 0 0 0 0 0 0 0 0 0 0 0 0 127 0"/>
<feOffset dy="6"/>
<feGaussianBlur stdDeviation="7.5"/>
<feColorMatrix type="matrix" values="0 0 0 0 0.956863 0 0 0 0 0.14902 0 0 0 0 0.243137 0 0 0 0.35 0"/>
<feBlend mode="normal" in2="BackgroundImageFix" result="effect1_dropShadow"/>
<feBlend mode="normal" in="SourceGraphic" in2="effect1_dropShadow" result="shape"/>
</filter>
</defs>
</svg>
