<svg width="94" height="94" viewBox="0 0 94 94" fill="none" xmlns="http://www.w3.org/2000/svg">
<path opacity="0.06" d="M68 0H26C11.6406 0 0 11.6406 0 26V68C0 82.3594 11.6406 94 26 94H68C82.3594 94 94 82.3594 94 68V26C94 11.6406 82.3594 0 68 0Z" fill="#782CE4"/>
<g filter="url(#filter0_d)">
<path d="M42.3344 61.6669C53.012 61.6669 61.6678 53.011 61.6678 42.3334C61.6678 31.6559 53.012 23 42.3344 23C31.6568 23 23.001 31.6559 23.001 42.3334C23.001 53.011 31.6568 61.6669 42.3344 61.6669Z" stroke="#782CE4" stroke-width="6" stroke-linecap="round" stroke-linejoin="round"/>
<path d="M56.0039 56.0034L70.9984 71" stroke="#782CE4" stroke-width="6" stroke-linecap="round" stroke-linejoin="round"/>
</g>
<path d="M42.3344 61.6669C53.012 61.6669 61.6678 53.011 61.6678 42.3334C61.6678 31.6559 53.012 23 42.3344 23C31.6568 23 23.001 31.6559 23.001 42.3334C23.001 53.011 31.6568 61.6669 42.3344 61.6669Z" fill="#E9DAFF" stroke="#782CE4" stroke-width="7" stroke-linecap="round" stroke-linejoin="round"/>
<path d="M56.0039 56.0034L70.9984 71" stroke="#782CE4" stroke-width="7" stroke-linecap="round" stroke-linejoin="round"/>
<defs>
<filter id="filter0_d" x="12.001" y="18" width="69.9974" height="70" filterUnits="userSpaceOnUse" color-interpolation-filters="sRGB">
<feFlood flood-opacity="0" result="BackgroundImageFix"/>
<feColorMatrix in="SourceAlpha" type="matrix" values="0 0 0 0 0 0 0 0 0 0 0 0 0 0 0 0 0 0 127 0"/>
<feOffset dy="6"/>
<feGaussianBlur stdDeviation="4"/>
<feColorMatrix type="matrix" values="0 0 0 0 0.470588 0 0 0 0 0.172549 0 0 0 0 0.894118 0 0 0 0.13 0"/>
<feBlend mode="normal" in2="BackgroundImageFix" result="effect1_dropShadow"/>
<feBlend mode="normal" in="SourceGraphic" in2="effect1_dropShadow" result="shape"/>
</filter>
</defs>
</svg>
